# xmcd
#
# Track frame offsets: 
#        150
#        14218
#        28673
#        41286
#
# Disc length: 770 seconds
#
# Revision: 0
# Processed by: cddbd v1.5.2PL0 Copyright (c) Steve Scherf et al.
# Submitted via: ExactAudioCopyFreeDBPlugin 1.0
#
DISCID=2b030004
DTITLE=The Smigx - Support your local LIVEBAND!!!
DYEAR=2014
DGENRE=Country
TTITLE0=Once In A While
TTITLE1=Hangman
TTITLE2=The Ballad Of Norma Jean
TTITLE3=Circles
EXTD=
EXTT0=
EXTT1=
EXTT2=
EXTT3=
PLAYORDER=
